<mxfile host="app.diagrams.net" agent="Mozilla/5.0 (Windows NT 10.0; Win64; x64) AppleWebKit/537.36 (KHTML, like Gecko) Chrome/131.0.0.0 Safari/537.36" version="26.0.10">
  <diagram id="R2lEEEUBdFMjLlhIrx00" name="Page-1">
    <mxGraphModel dx="1493" dy="669" grid="1" gridSize="10" guides="1" tooltips="1" connect="1" arrows="1" fold="1" page="1" pageScale="1" pageWidth="850" pageHeight="1100" math="0" shadow="0" extFonts="Permanent Marker^https://fonts.googleapis.com/css?family=Permanent+Marker">
      <root>
        <mxCell id="0" />
        <mxCell id="1" parent="0" />
        <mxCell id="Ww189aZFwE7ANTec-XfQ-183" value="User" style="shape=table;startSize=30;container=1;collapsible=0;childLayout=tableLayout;" vertex="1" parent="1">
          <mxGeometry x="280" y="10" width="260" height="246" as="geometry" />
        </mxCell>
        <mxCell id="Ww189aZFwE7ANTec-XfQ-184" value="" style="shape=tableRow;horizontal=0;startSize=0;swimlaneHead=0;swimlaneBody=0;strokeColor=inherit;top=0;left=0;bottom=0;right=0;collapsible=0;dropTarget=0;fillColor=none;points=[[0,0.5],[1,0.5]];portConstraint=eastwest;" vertex="1" parent="Ww189aZFwE7ANTec-XfQ-183">
          <mxGeometry y="30" width="260" height="24" as="geometry" />
        </mxCell>
        <mxCell id="Ww189aZFwE7ANTec-XfQ-185" value="int" style="shape=partialRectangle;html=1;whiteSpace=wrap;connectable=0;strokeColor=inherit;overflow=hidden;fillColor=none;top=0;left=0;bottom=0;right=0;pointerEvents=1;" vertex="1" parent="Ww189aZFwE7ANTec-XfQ-184">
          <mxGeometry width="80" height="24" as="geometry">
            <mxRectangle width="80" height="24" as="alternateBounds" />
          </mxGeometry>
        </mxCell>
        <mxCell id="Ww189aZFwE7ANTec-XfQ-186" value="user_id" style="shape=partialRectangle;html=1;whiteSpace=wrap;connectable=0;strokeColor=inherit;overflow=hidden;fillColor=none;top=0;left=0;bottom=0;right=0;pointerEvents=1;" vertex="1" parent="Ww189aZFwE7ANTec-XfQ-184">
          <mxGeometry x="80" width="130" height="24" as="geometry">
            <mxRectangle width="130" height="24" as="alternateBounds" />
          </mxGeometry>
        </mxCell>
        <mxCell id="Ww189aZFwE7ANTec-XfQ-187" value="PK" style="shape=partialRectangle;html=1;whiteSpace=wrap;connectable=0;strokeColor=inherit;overflow=hidden;fillColor=none;top=0;left=0;bottom=0;right=0;pointerEvents=1;" vertex="1" parent="Ww189aZFwE7ANTec-XfQ-184">
          <mxGeometry x="210" width="50" height="24" as="geometry">
            <mxRectangle width="50" height="24" as="alternateBounds" />
          </mxGeometry>
        </mxCell>
        <mxCell id="Ww189aZFwE7ANTec-XfQ-188" value="" style="shape=tableRow;horizontal=0;startSize=0;swimlaneHead=0;swimlaneBody=0;strokeColor=inherit;top=0;left=0;bottom=0;right=0;collapsible=0;dropTarget=0;fillColor=none;points=[[0,0.5],[1,0.5]];portConstraint=eastwest;" vertex="1" parent="Ww189aZFwE7ANTec-XfQ-183">
          <mxGeometry y="54" width="260" height="24" as="geometry" />
        </mxCell>
        <mxCell id="Ww189aZFwE7ANTec-XfQ-189" value="string" style="shape=partialRectangle;html=1;whiteSpace=wrap;connectable=0;strokeColor=inherit;overflow=hidden;fillColor=none;top=0;left=0;bottom=0;right=0;pointerEvents=1;" vertex="1" parent="Ww189aZFwE7ANTec-XfQ-188">
          <mxGeometry width="80" height="24" as="geometry">
            <mxRectangle width="80" height="24" as="alternateBounds" />
          </mxGeometry>
        </mxCell>
        <mxCell id="Ww189aZFwE7ANTec-XfQ-190" value="name" style="shape=partialRectangle;html=1;whiteSpace=wrap;connectable=0;strokeColor=inherit;overflow=hidden;fillColor=none;top=0;left=0;bottom=0;right=0;pointerEvents=1;" vertex="1" parent="Ww189aZFwE7ANTec-XfQ-188">
          <mxGeometry x="80" width="130" height="24" as="geometry">
            <mxRectangle width="130" height="24" as="alternateBounds" />
          </mxGeometry>
        </mxCell>
        <mxCell id="Ww189aZFwE7ANTec-XfQ-191" value="" style="shape=partialRectangle;html=1;whiteSpace=wrap;connectable=0;strokeColor=inherit;overflow=hidden;fillColor=none;top=0;left=0;bottom=0;right=0;pointerEvents=1;" vertex="1" parent="Ww189aZFwE7ANTec-XfQ-188">
          <mxGeometry x="210" width="50" height="24" as="geometry">
            <mxRectangle width="50" height="24" as="alternateBounds" />
          </mxGeometry>
        </mxCell>
        <mxCell id="Ww189aZFwE7ANTec-XfQ-192" value="" style="shape=tableRow;horizontal=0;startSize=0;swimlaneHead=0;swimlaneBody=0;strokeColor=inherit;top=0;left=0;bottom=0;right=0;collapsible=0;dropTarget=0;fillColor=none;points=[[0,0.5],[1,0.5]];portConstraint=eastwest;" vertex="1" parent="Ww189aZFwE7ANTec-XfQ-183">
          <mxGeometry y="78" width="260" height="24" as="geometry" />
        </mxCell>
        <mxCell id="Ww189aZFwE7ANTec-XfQ-193" value="string" style="shape=partialRectangle;html=1;whiteSpace=wrap;connectable=0;strokeColor=inherit;overflow=hidden;fillColor=none;top=0;left=0;bottom=0;right=0;pointerEvents=1;" vertex="1" parent="Ww189aZFwE7ANTec-XfQ-192">
          <mxGeometry width="80" height="24" as="geometry">
            <mxRectangle width="80" height="24" as="alternateBounds" />
          </mxGeometry>
        </mxCell>
        <mxCell id="Ww189aZFwE7ANTec-XfQ-194" value="email" style="shape=partialRectangle;html=1;whiteSpace=wrap;connectable=0;strokeColor=inherit;overflow=hidden;fillColor=none;top=0;left=0;bottom=0;right=0;pointerEvents=1;" vertex="1" parent="Ww189aZFwE7ANTec-XfQ-192">
          <mxGeometry x="80" width="130" height="24" as="geometry">
            <mxRectangle width="130" height="24" as="alternateBounds" />
          </mxGeometry>
        </mxCell>
        <mxCell id="Ww189aZFwE7ANTec-XfQ-195" value="" style="shape=partialRectangle;html=1;whiteSpace=wrap;connectable=0;strokeColor=inherit;overflow=hidden;fillColor=none;top=0;left=0;bottom=0;right=0;pointerEvents=1;" vertex="1" parent="Ww189aZFwE7ANTec-XfQ-192">
          <mxGeometry x="210" width="50" height="24" as="geometry">
            <mxRectangle width="50" height="24" as="alternateBounds" />
          </mxGeometry>
        </mxCell>
        <mxCell id="Ww189aZFwE7ANTec-XfQ-196" value="" style="shape=tableRow;horizontal=0;startSize=0;swimlaneHead=0;swimlaneBody=0;strokeColor=inherit;top=0;left=0;bottom=0;right=0;collapsible=0;dropTarget=0;fillColor=none;points=[[0,0.5],[1,0.5]];portConstraint=eastwest;" vertex="1" parent="Ww189aZFwE7ANTec-XfQ-183">
          <mxGeometry y="102" width="260" height="24" as="geometry" />
        </mxCell>
        <mxCell id="Ww189aZFwE7ANTec-XfQ-197" value="string" style="shape=partialRectangle;html=1;whiteSpace=wrap;connectable=0;strokeColor=inherit;overflow=hidden;fillColor=none;top=0;left=0;bottom=0;right=0;pointerEvents=1;" vertex="1" parent="Ww189aZFwE7ANTec-XfQ-196">
          <mxGeometry width="80" height="24" as="geometry">
            <mxRectangle width="80" height="24" as="alternateBounds" />
          </mxGeometry>
        </mxCell>
        <mxCell id="Ww189aZFwE7ANTec-XfQ-198" value="password_hash" style="shape=partialRectangle;html=1;whiteSpace=wrap;connectable=0;strokeColor=inherit;overflow=hidden;fillColor=none;top=0;left=0;bottom=0;right=0;pointerEvents=1;" vertex="1" parent="Ww189aZFwE7ANTec-XfQ-196">
          <mxGeometry x="80" width="130" height="24" as="geometry">
            <mxRectangle width="130" height="24" as="alternateBounds" />
          </mxGeometry>
        </mxCell>
        <mxCell id="Ww189aZFwE7ANTec-XfQ-199" value="" style="shape=partialRectangle;html=1;whiteSpace=wrap;connectable=0;strokeColor=inherit;overflow=hidden;fillColor=none;top=0;left=0;bottom=0;right=0;pointerEvents=1;" vertex="1" parent="Ww189aZFwE7ANTec-XfQ-196">
          <mxGeometry x="210" width="50" height="24" as="geometry">
            <mxRectangle width="50" height="24" as="alternateBounds" />
          </mxGeometry>
        </mxCell>
        <mxCell id="Ww189aZFwE7ANTec-XfQ-200" value="" style="shape=tableRow;horizontal=0;startSize=0;swimlaneHead=0;swimlaneBody=0;strokeColor=inherit;top=0;left=0;bottom=0;right=0;collapsible=0;dropTarget=0;fillColor=none;points=[[0,0.5],[1,0.5]];portConstraint=eastwest;" vertex="1" parent="Ww189aZFwE7ANTec-XfQ-183">
          <mxGeometry y="126" width="260" height="24" as="geometry" />
        </mxCell>
        <mxCell id="Ww189aZFwE7ANTec-XfQ-201" value="string" style="shape=partialRectangle;html=1;whiteSpace=wrap;connectable=0;strokeColor=inherit;overflow=hidden;fillColor=none;top=0;left=0;bottom=0;right=0;pointerEvents=1;" vertex="1" parent="Ww189aZFwE7ANTec-XfQ-200">
          <mxGeometry width="80" height="24" as="geometry">
            <mxRectangle width="80" height="24" as="alternateBounds" />
          </mxGeometry>
        </mxCell>
        <mxCell id="Ww189aZFwE7ANTec-XfQ-202" value="phone" style="shape=partialRectangle;html=1;whiteSpace=wrap;connectable=0;strokeColor=inherit;overflow=hidden;fillColor=none;top=0;left=0;bottom=0;right=0;pointerEvents=1;" vertex="1" parent="Ww189aZFwE7ANTec-XfQ-200">
          <mxGeometry x="80" width="130" height="24" as="geometry">
            <mxRectangle width="130" height="24" as="alternateBounds" />
          </mxGeometry>
        </mxCell>
        <mxCell id="Ww189aZFwE7ANTec-XfQ-203" value="" style="shape=partialRectangle;html=1;whiteSpace=wrap;connectable=0;strokeColor=inherit;overflow=hidden;fillColor=none;top=0;left=0;bottom=0;right=0;pointerEvents=1;" vertex="1" parent="Ww189aZFwE7ANTec-XfQ-200">
          <mxGeometry x="210" width="50" height="24" as="geometry">
            <mxRectangle width="50" height="24" as="alternateBounds" />
          </mxGeometry>
        </mxCell>
        <mxCell id="Ww189aZFwE7ANTec-XfQ-204" value="" style="shape=tableRow;horizontal=0;startSize=0;swimlaneHead=0;swimlaneBody=0;strokeColor=inherit;top=0;left=0;bottom=0;right=0;collapsible=0;dropTarget=0;fillColor=none;points=[[0,0.5],[1,0.5]];portConstraint=eastwest;" vertex="1" parent="Ww189aZFwE7ANTec-XfQ-183">
          <mxGeometry y="150" width="260" height="24" as="geometry" />
        </mxCell>
        <mxCell id="Ww189aZFwE7ANTec-XfQ-205" value="string" style="shape=partialRectangle;html=1;whiteSpace=wrap;connectable=0;strokeColor=inherit;overflow=hidden;fillColor=none;top=0;left=0;bottom=0;right=0;pointerEvents=1;" vertex="1" parent="Ww189aZFwE7ANTec-XfQ-204">
          <mxGeometry width="80" height="24" as="geometry">
            <mxRectangle width="80" height="24" as="alternateBounds" />
          </mxGeometry>
        </mxCell>
        <mxCell id="Ww189aZFwE7ANTec-XfQ-206" value="address" style="shape=partialRectangle;html=1;whiteSpace=wrap;connectable=0;strokeColor=inherit;overflow=hidden;fillColor=none;top=0;left=0;bottom=0;right=0;pointerEvents=1;" vertex="1" parent="Ww189aZFwE7ANTec-XfQ-204">
          <mxGeometry x="80" width="130" height="24" as="geometry">
            <mxRectangle width="130" height="24" as="alternateBounds" />
          </mxGeometry>
        </mxCell>
        <mxCell id="Ww189aZFwE7ANTec-XfQ-207" value="" style="shape=partialRectangle;html=1;whiteSpace=wrap;connectable=0;strokeColor=inherit;overflow=hidden;fillColor=none;top=0;left=0;bottom=0;right=0;pointerEvents=1;" vertex="1" parent="Ww189aZFwE7ANTec-XfQ-204">
          <mxGeometry x="210" width="50" height="24" as="geometry">
            <mxRectangle width="50" height="24" as="alternateBounds" />
          </mxGeometry>
        </mxCell>
        <mxCell id="Ww189aZFwE7ANTec-XfQ-212" value="" style="shape=tableRow;horizontal=0;startSize=0;swimlaneHead=0;swimlaneBody=0;strokeColor=inherit;top=0;left=0;bottom=0;right=0;collapsible=0;dropTarget=0;fillColor=none;points=[[0,0.5],[1,0.5]];portConstraint=eastwest;" vertex="1" parent="Ww189aZFwE7ANTec-XfQ-183">
          <mxGeometry y="174" width="260" height="24" as="geometry" />
        </mxCell>
        <mxCell id="Ww189aZFwE7ANTec-XfQ-213" value="datetime" style="shape=partialRectangle;html=1;whiteSpace=wrap;connectable=0;strokeColor=inherit;overflow=hidden;fillColor=none;top=0;left=0;bottom=0;right=0;pointerEvents=1;" vertex="1" parent="Ww189aZFwE7ANTec-XfQ-212">
          <mxGeometry width="80" height="24" as="geometry">
            <mxRectangle width="80" height="24" as="alternateBounds" />
          </mxGeometry>
        </mxCell>
        <mxCell id="Ww189aZFwE7ANTec-XfQ-214" value="created_at" style="shape=partialRectangle;html=1;whiteSpace=wrap;connectable=0;strokeColor=inherit;overflow=hidden;fillColor=none;top=0;left=0;bottom=0;right=0;pointerEvents=1;" vertex="1" parent="Ww189aZFwE7ANTec-XfQ-212">
          <mxGeometry x="80" width="130" height="24" as="geometry">
            <mxRectangle width="130" height="24" as="alternateBounds" />
          </mxGeometry>
        </mxCell>
        <mxCell id="Ww189aZFwE7ANTec-XfQ-215" value="" style="shape=partialRectangle;html=1;whiteSpace=wrap;connectable=0;strokeColor=inherit;overflow=hidden;fillColor=none;top=0;left=0;bottom=0;right=0;pointerEvents=1;" vertex="1" parent="Ww189aZFwE7ANTec-XfQ-212">
          <mxGeometry x="210" width="50" height="24" as="geometry">
            <mxRectangle width="50" height="24" as="alternateBounds" />
          </mxGeometry>
        </mxCell>
        <mxCell id="Ww189aZFwE7ANTec-XfQ-216" value="" style="shape=tableRow;horizontal=0;startSize=0;swimlaneHead=0;swimlaneBody=0;strokeColor=inherit;top=0;left=0;bottom=0;right=0;collapsible=0;dropTarget=0;fillColor=none;points=[[0,0.5],[1,0.5]];portConstraint=eastwest;" vertex="1" parent="Ww189aZFwE7ANTec-XfQ-183">
          <mxGeometry y="198" width="260" height="24" as="geometry" />
        </mxCell>
        <mxCell id="Ww189aZFwE7ANTec-XfQ-217" value="datetime" style="shape=partialRectangle;html=1;whiteSpace=wrap;connectable=0;strokeColor=inherit;overflow=hidden;fillColor=none;top=0;left=0;bottom=0;right=0;pointerEvents=1;" vertex="1" parent="Ww189aZFwE7ANTec-XfQ-216">
          <mxGeometry width="80" height="24" as="geometry">
            <mxRectangle width="80" height="24" as="alternateBounds" />
          </mxGeometry>
        </mxCell>
        <mxCell id="Ww189aZFwE7ANTec-XfQ-218" value="updated_at" style="shape=partialRectangle;html=1;whiteSpace=wrap;connectable=0;strokeColor=inherit;overflow=hidden;fillColor=none;top=0;left=0;bottom=0;right=0;pointerEvents=1;" vertex="1" parent="Ww189aZFwE7ANTec-XfQ-216">
          <mxGeometry x="80" width="130" height="24" as="geometry">
            <mxRectangle width="130" height="24" as="alternateBounds" />
          </mxGeometry>
        </mxCell>
        <mxCell id="Ww189aZFwE7ANTec-XfQ-219" value="" style="shape=partialRectangle;html=1;whiteSpace=wrap;connectable=0;strokeColor=inherit;overflow=hidden;fillColor=none;top=0;left=0;bottom=0;right=0;pointerEvents=1;" vertex="1" parent="Ww189aZFwE7ANTec-XfQ-216">
          <mxGeometry x="210" width="50" height="24" as="geometry">
            <mxRectangle width="50" height="24" as="alternateBounds" />
          </mxGeometry>
        </mxCell>
        <mxCell id="Ww189aZFwE7ANTec-XfQ-220" value="" style="shape=tableRow;horizontal=0;startSize=0;swimlaneHead=0;swimlaneBody=0;strokeColor=inherit;top=0;left=0;bottom=0;right=0;collapsible=0;dropTarget=0;fillColor=none;points=[[0,0.5],[1,0.5]];portConstraint=eastwest;" vertex="1" parent="Ww189aZFwE7ANTec-XfQ-183">
          <mxGeometry y="222" width="260" height="24" as="geometry" />
        </mxCell>
        <mxCell id="Ww189aZFwE7ANTec-XfQ-221" value="boolean" style="shape=partialRectangle;html=1;whiteSpace=wrap;connectable=0;strokeColor=inherit;overflow=hidden;fillColor=none;top=0;left=0;bottom=0;right=0;pointerEvents=1;" vertex="1" parent="Ww189aZFwE7ANTec-XfQ-220">
          <mxGeometry width="80" height="24" as="geometry">
            <mxRectangle width="80" height="24" as="alternateBounds" />
          </mxGeometry>
        </mxCell>
        <mxCell id="Ww189aZFwE7ANTec-XfQ-222" value="is_active" style="shape=partialRectangle;html=1;whiteSpace=wrap;connectable=0;strokeColor=inherit;overflow=hidden;fillColor=none;top=0;left=0;bottom=0;right=0;pointerEvents=1;" vertex="1" parent="Ww189aZFwE7ANTec-XfQ-220">
          <mxGeometry x="80" width="130" height="24" as="geometry">
            <mxRectangle width="130" height="24" as="alternateBounds" />
          </mxGeometry>
        </mxCell>
        <mxCell id="Ww189aZFwE7ANTec-XfQ-223" value="" style="shape=partialRectangle;html=1;whiteSpace=wrap;connectable=0;strokeColor=inherit;overflow=hidden;fillColor=none;top=0;left=0;bottom=0;right=0;pointerEvents=1;" vertex="1" parent="Ww189aZFwE7ANTec-XfQ-220">
          <mxGeometry x="210" width="50" height="24" as="geometry">
            <mxRectangle width="50" height="24" as="alternateBounds" />
          </mxGeometry>
        </mxCell>
        <mxCell id="Ww189aZFwE7ANTec-XfQ-224" value="cutomers" style="shape=table;startSize=30;container=1;collapsible=0;childLayout=tableLayout;" vertex="1" parent="1">
          <mxGeometry x="600" y="400" width="210" height="140" as="geometry" />
        </mxCell>
        <mxCell id="Ww189aZFwE7ANTec-XfQ-225" value="" style="shape=tableRow;horizontal=0;startSize=0;swimlaneHead=0;swimlaneBody=0;strokeColor=inherit;top=0;left=0;bottom=0;right=0;collapsible=0;dropTarget=0;fillColor=none;points=[[0,0.5],[1,0.5]];portConstraint=eastwest;" vertex="1" parent="Ww189aZFwE7ANTec-XfQ-224">
          <mxGeometry y="30" width="210" height="30" as="geometry" />
        </mxCell>
        <mxCell id="Ww189aZFwE7ANTec-XfQ-226" value="int" style="shape=partialRectangle;html=1;whiteSpace=wrap;connectable=0;strokeColor=inherit;overflow=hidden;fillColor=none;top=0;left=0;bottom=0;right=0;pointerEvents=1;" vertex="1" parent="Ww189aZFwE7ANTec-XfQ-225">
          <mxGeometry width="60" height="30" as="geometry">
            <mxRectangle width="60" height="30" as="alternateBounds" />
          </mxGeometry>
        </mxCell>
        <mxCell id="Ww189aZFwE7ANTec-XfQ-227" value="user_id" style="shape=partialRectangle;html=1;whiteSpace=wrap;connectable=0;strokeColor=inherit;overflow=hidden;fillColor=none;top=0;left=0;bottom=0;right=0;pointerEvents=1;" vertex="1" parent="Ww189aZFwE7ANTec-XfQ-225">
          <mxGeometry x="60" width="90" height="30" as="geometry">
            <mxRectangle width="90" height="30" as="alternateBounds" />
          </mxGeometry>
        </mxCell>
        <mxCell id="Ww189aZFwE7ANTec-XfQ-228" value="PK,FK" style="shape=partialRectangle;html=1;whiteSpace=wrap;connectable=0;strokeColor=inherit;overflow=hidden;fillColor=none;top=0;left=0;bottom=0;right=0;pointerEvents=1;" vertex="1" parent="Ww189aZFwE7ANTec-XfQ-225">
          <mxGeometry x="150" width="60" height="30" as="geometry">
            <mxRectangle width="60" height="30" as="alternateBounds" />
          </mxGeometry>
        </mxCell>
        <mxCell id="Ww189aZFwE7ANTec-XfQ-229" value="" style="shape=tableRow;horizontal=0;startSize=0;swimlaneHead=0;swimlaneBody=0;strokeColor=inherit;top=0;left=0;bottom=0;right=0;collapsible=0;dropTarget=0;fillColor=none;points=[[0,0.5],[1,0.5]];portConstraint=eastwest;" vertex="1" parent="Ww189aZFwE7ANTec-XfQ-224">
          <mxGeometry y="60" width="210" height="40" as="geometry" />
        </mxCell>
        <mxCell id="Ww189aZFwE7ANTec-XfQ-230" value="string" style="shape=partialRectangle;html=1;whiteSpace=wrap;connectable=0;strokeColor=inherit;overflow=hidden;fillColor=none;top=0;left=0;bottom=0;right=0;pointerEvents=1;" vertex="1" parent="Ww189aZFwE7ANTec-XfQ-229">
          <mxGeometry width="60" height="40" as="geometry">
            <mxRectangle width="60" height="40" as="alternateBounds" />
          </mxGeometry>
        </mxCell>
        <mxCell id="Ww189aZFwE7ANTec-XfQ-231" value="national_id" style="shape=partialRectangle;html=1;whiteSpace=wrap;connectable=0;strokeColor=inherit;overflow=hidden;fillColor=none;top=0;left=0;bottom=0;right=0;pointerEvents=1;" vertex="1" parent="Ww189aZFwE7ANTec-XfQ-229">
          <mxGeometry x="60" width="90" height="40" as="geometry">
            <mxRectangle width="90" height="40" as="alternateBounds" />
          </mxGeometry>
        </mxCell>
        <mxCell id="Ww189aZFwE7ANTec-XfQ-232" value="" style="shape=partialRectangle;html=1;whiteSpace=wrap;connectable=0;strokeColor=inherit;overflow=hidden;fillColor=none;top=0;left=0;bottom=0;right=0;pointerEvents=1;" vertex="1" parent="Ww189aZFwE7ANTec-XfQ-229">
          <mxGeometry x="150" width="60" height="40" as="geometry">
            <mxRectangle width="60" height="40" as="alternateBounds" />
          </mxGeometry>
        </mxCell>
        <mxCell id="Ww189aZFwE7ANTec-XfQ-233" value="" style="shape=tableRow;horizontal=0;startSize=0;swimlaneHead=0;swimlaneBody=0;strokeColor=inherit;top=0;left=0;bottom=0;right=0;collapsible=0;dropTarget=0;fillColor=none;points=[[0,0.5],[1,0.5]];portConstraint=eastwest;" vertex="1" parent="Ww189aZFwE7ANTec-XfQ-224">
          <mxGeometry y="100" width="210" height="40" as="geometry" />
        </mxCell>
        <mxCell id="Ww189aZFwE7ANTec-XfQ-234" value="decimal" style="shape=partialRectangle;html=1;whiteSpace=wrap;connectable=0;strokeColor=inherit;overflow=hidden;fillColor=none;top=0;left=0;bottom=0;right=0;pointerEvents=1;" vertex="1" parent="Ww189aZFwE7ANTec-XfQ-233">
          <mxGeometry width="60" height="40" as="geometry">
            <mxRectangle width="60" height="40" as="alternateBounds" />
          </mxGeometry>
        </mxCell>
        <mxCell id="Ww189aZFwE7ANTec-XfQ-235" value="wallet_balance" style="shape=partialRectangle;html=1;whiteSpace=wrap;connectable=0;strokeColor=inherit;overflow=hidden;fillColor=none;top=0;left=0;bottom=0;right=0;pointerEvents=1;" vertex="1" parent="Ww189aZFwE7ANTec-XfQ-233">
          <mxGeometry x="60" width="90" height="40" as="geometry">
            <mxRectangle width="90" height="40" as="alternateBounds" />
          </mxGeometry>
        </mxCell>
        <mxCell id="Ww189aZFwE7ANTec-XfQ-236" value="" style="shape=partialRectangle;html=1;whiteSpace=wrap;connectable=0;strokeColor=inherit;overflow=hidden;fillColor=none;top=0;left=0;bottom=0;right=0;pointerEvents=1;" vertex="1" parent="Ww189aZFwE7ANTec-XfQ-233">
          <mxGeometry x="150" width="60" height="40" as="geometry">
            <mxRectangle width="60" height="40" as="alternateBounds" />
          </mxGeometry>
        </mxCell>
        <mxCell id="Ww189aZFwE7ANTec-XfQ-237" value="Drivers" style="shape=table;startSize=30;container=1;collapsible=0;childLayout=tableLayout;" vertex="1" parent="1">
          <mxGeometry x="300" y="410" width="240" height="230" as="geometry" />
        </mxCell>
        <mxCell id="Ww189aZFwE7ANTec-XfQ-238" value="" style="shape=tableRow;horizontal=0;startSize=0;swimlaneHead=0;swimlaneBody=0;strokeColor=inherit;top=0;left=0;bottom=0;right=0;collapsible=0;dropTarget=0;fillColor=none;points=[[0,0.5],[1,0.5]];portConstraint=eastwest;" vertex="1" parent="Ww189aZFwE7ANTec-XfQ-237">
          <mxGeometry y="30" width="240" height="40" as="geometry" />
        </mxCell>
        <mxCell id="Ww189aZFwE7ANTec-XfQ-239" value="int" style="shape=partialRectangle;html=1;whiteSpace=wrap;connectable=0;strokeColor=inherit;overflow=hidden;fillColor=none;top=0;left=0;bottom=0;right=0;pointerEvents=1;" vertex="1" parent="Ww189aZFwE7ANTec-XfQ-238">
          <mxGeometry width="80" height="40" as="geometry">
            <mxRectangle width="80" height="40" as="alternateBounds" />
          </mxGeometry>
        </mxCell>
        <mxCell id="Ww189aZFwE7ANTec-XfQ-240" value="user_id" style="shape=partialRectangle;html=1;whiteSpace=wrap;connectable=0;strokeColor=inherit;overflow=hidden;fillColor=none;top=0;left=0;bottom=0;right=0;pointerEvents=1;" vertex="1" parent="Ww189aZFwE7ANTec-XfQ-238">
          <mxGeometry x="80" width="112" height="40" as="geometry">
            <mxRectangle width="112" height="40" as="alternateBounds" />
          </mxGeometry>
        </mxCell>
        <mxCell id="Ww189aZFwE7ANTec-XfQ-241" value="PK,FK" style="shape=partialRectangle;html=1;whiteSpace=wrap;connectable=0;strokeColor=inherit;overflow=hidden;fillColor=none;top=0;left=0;bottom=0;right=0;pointerEvents=1;" vertex="1" parent="Ww189aZFwE7ANTec-XfQ-238">
          <mxGeometry x="192" width="48" height="40" as="geometry">
            <mxRectangle width="48" height="40" as="alternateBounds" />
          </mxGeometry>
        </mxCell>
        <mxCell id="Ww189aZFwE7ANTec-XfQ-242" value="" style="shape=tableRow;horizontal=0;startSize=0;swimlaneHead=0;swimlaneBody=0;strokeColor=inherit;top=0;left=0;bottom=0;right=0;collapsible=0;dropTarget=0;fillColor=none;points=[[0,0.5],[1,0.5]];portConstraint=eastwest;" vertex="1" parent="Ww189aZFwE7ANTec-XfQ-237">
          <mxGeometry y="70" width="240" height="40" as="geometry" />
        </mxCell>
        <mxCell id="Ww189aZFwE7ANTec-XfQ-243" value="string" style="shape=partialRectangle;html=1;whiteSpace=wrap;connectable=0;strokeColor=inherit;overflow=hidden;fillColor=none;top=0;left=0;bottom=0;right=0;pointerEvents=1;" vertex="1" parent="Ww189aZFwE7ANTec-XfQ-242">
          <mxGeometry width="80" height="40" as="geometry">
            <mxRectangle width="80" height="40" as="alternateBounds" />
          </mxGeometry>
        </mxCell>
        <mxCell id="Ww189aZFwE7ANTec-XfQ-244" value="account_status" style="shape=partialRectangle;html=1;whiteSpace=wrap;connectable=0;strokeColor=inherit;overflow=hidden;fillColor=none;top=0;left=0;bottom=0;right=0;pointerEvents=1;" vertex="1" parent="Ww189aZFwE7ANTec-XfQ-242">
          <mxGeometry x="80" width="112" height="40" as="geometry">
            <mxRectangle width="112" height="40" as="alternateBounds" />
          </mxGeometry>
        </mxCell>
        <mxCell id="Ww189aZFwE7ANTec-XfQ-245" value="" style="shape=partialRectangle;html=1;whiteSpace=wrap;connectable=0;strokeColor=inherit;overflow=hidden;fillColor=none;top=0;left=0;bottom=0;right=0;pointerEvents=1;" vertex="1" parent="Ww189aZFwE7ANTec-XfQ-242">
          <mxGeometry x="192" width="48" height="40" as="geometry">
            <mxRectangle width="48" height="40" as="alternateBounds" />
          </mxGeometry>
        </mxCell>
        <mxCell id="Ww189aZFwE7ANTec-XfQ-246" value="" style="shape=tableRow;horizontal=0;startSize=0;swimlaneHead=0;swimlaneBody=0;strokeColor=inherit;top=0;left=0;bottom=0;right=0;collapsible=0;dropTarget=0;fillColor=none;points=[[0,0.5],[1,0.5]];portConstraint=eastwest;" vertex="1" parent="Ww189aZFwE7ANTec-XfQ-237">
          <mxGeometry y="110" width="240" height="40" as="geometry" />
        </mxCell>
        <mxCell id="Ww189aZFwE7ANTec-XfQ-247" value="date" style="shape=partialRectangle;html=1;whiteSpace=wrap;connectable=0;strokeColor=inherit;overflow=hidden;fillColor=none;top=0;left=0;bottom=0;right=0;pointerEvents=1;" vertex="1" parent="Ww189aZFwE7ANTec-XfQ-246">
          <mxGeometry width="80" height="40" as="geometry">
            <mxRectangle width="80" height="40" as="alternateBounds" />
          </mxGeometry>
        </mxCell>
        <mxCell id="Ww189aZFwE7ANTec-XfQ-248" value="last_payment_date" style="shape=partialRectangle;html=1;whiteSpace=wrap;connectable=0;strokeColor=inherit;overflow=hidden;fillColor=none;top=0;left=0;bottom=0;right=0;pointerEvents=1;" vertex="1" parent="Ww189aZFwE7ANTec-XfQ-246">
          <mxGeometry x="80" width="112" height="40" as="geometry">
            <mxRectangle width="112" height="40" as="alternateBounds" />
          </mxGeometry>
        </mxCell>
        <mxCell id="Ww189aZFwE7ANTec-XfQ-249" value="" style="shape=partialRectangle;html=1;whiteSpace=wrap;connectable=0;strokeColor=inherit;overflow=hidden;fillColor=none;top=0;left=0;bottom=0;right=0;pointerEvents=1;" vertex="1" parent="Ww189aZFwE7ANTec-XfQ-246">
          <mxGeometry x="192" width="48" height="40" as="geometry">
            <mxRectangle width="48" height="40" as="alternateBounds" />
          </mxGeometry>
        </mxCell>
        <mxCell id="Ww189aZFwE7ANTec-XfQ-250" value="" style="shape=tableRow;horizontal=0;startSize=0;swimlaneHead=0;swimlaneBody=0;strokeColor=inherit;top=0;left=0;bottom=0;right=0;collapsible=0;dropTarget=0;fillColor=none;points=[[0,0.5],[1,0.5]];portConstraint=eastwest;" vertex="1" parent="Ww189aZFwE7ANTec-XfQ-237">
          <mxGeometry y="150" width="240" height="40" as="geometry" />
        </mxCell>
        <mxCell id="Ww189aZFwE7ANTec-XfQ-251" value="string" style="shape=partialRectangle;html=1;whiteSpace=wrap;connectable=0;strokeColor=inherit;overflow=hidden;fillColor=none;top=0;left=0;bottom=0;right=0;pointerEvents=1;" vertex="1" parent="Ww189aZFwE7ANTec-XfQ-250">
          <mxGeometry width="80" height="40" as="geometry">
            <mxRectangle width="80" height="40" as="alternateBounds" />
          </mxGeometry>
        </mxCell>
        <mxCell id="Ww189aZFwE7ANTec-XfQ-252" value="vechile_info" style="shape=partialRectangle;html=1;whiteSpace=wrap;connectable=0;strokeColor=inherit;overflow=hidden;fillColor=none;top=0;left=0;bottom=0;right=0;pointerEvents=1;" vertex="1" parent="Ww189aZFwE7ANTec-XfQ-250">
          <mxGeometry x="80" width="112" height="40" as="geometry">
            <mxRectangle width="112" height="40" as="alternateBounds" />
          </mxGeometry>
        </mxCell>
        <mxCell id="Ww189aZFwE7ANTec-XfQ-253" value="" style="shape=partialRectangle;html=1;whiteSpace=wrap;connectable=0;strokeColor=inherit;overflow=hidden;fillColor=none;top=0;left=0;bottom=0;right=0;pointerEvents=1;" vertex="1" parent="Ww189aZFwE7ANTec-XfQ-250">
          <mxGeometry x="192" width="48" height="40" as="geometry">
            <mxRectangle width="48" height="40" as="alternateBounds" />
          </mxGeometry>
        </mxCell>
        <mxCell id="Ww189aZFwE7ANTec-XfQ-254" value="" style="shape=tableRow;horizontal=0;startSize=0;swimlaneHead=0;swimlaneBody=0;strokeColor=inherit;top=0;left=0;bottom=0;right=0;collapsible=0;dropTarget=0;fillColor=none;points=[[0,0.5],[1,0.5]];portConstraint=eastwest;" vertex="1" parent="Ww189aZFwE7ANTec-XfQ-237">
          <mxGeometry y="190" width="240" height="40" as="geometry" />
        </mxCell>
        <mxCell id="Ww189aZFwE7ANTec-XfQ-255" value="string" style="shape=partialRectangle;html=1;whiteSpace=wrap;connectable=0;strokeColor=inherit;overflow=hidden;fillColor=none;top=0;left=0;bottom=0;right=0;pointerEvents=1;" vertex="1" parent="Ww189aZFwE7ANTec-XfQ-254">
          <mxGeometry width="80" height="40" as="geometry">
            <mxRectangle width="80" height="40" as="alternateBounds" />
          </mxGeometry>
        </mxCell>
        <mxCell id="Ww189aZFwE7ANTec-XfQ-256" value="license_number" style="shape=partialRectangle;html=1;whiteSpace=wrap;connectable=0;strokeColor=inherit;overflow=hidden;fillColor=none;top=0;left=0;bottom=0;right=0;pointerEvents=1;" vertex="1" parent="Ww189aZFwE7ANTec-XfQ-254">
          <mxGeometry x="80" width="112" height="40" as="geometry">
            <mxRectangle width="112" height="40" as="alternateBounds" />
          </mxGeometry>
        </mxCell>
        <mxCell id="Ww189aZFwE7ANTec-XfQ-257" value="" style="shape=partialRectangle;html=1;whiteSpace=wrap;connectable=0;strokeColor=inherit;overflow=hidden;fillColor=none;top=0;left=0;bottom=0;right=0;pointerEvents=1;" vertex="1" parent="Ww189aZFwE7ANTec-XfQ-254">
          <mxGeometry x="192" width="48" height="40" as="geometry">
            <mxRectangle width="48" height="40" as="alternateBounds" />
          </mxGeometry>
        </mxCell>
        <mxCell id="Ww189aZFwE7ANTec-XfQ-258" value="Admins" style="shape=table;startSize=30;container=1;collapsible=0;childLayout=tableLayout;" vertex="1" parent="1">
          <mxGeometry x="40" y="400" width="200" height="150" as="geometry" />
        </mxCell>
        <mxCell id="Ww189aZFwE7ANTec-XfQ-259" value="" style="shape=tableRow;horizontal=0;startSize=0;swimlaneHead=0;swimlaneBody=0;strokeColor=inherit;top=0;left=0;bottom=0;right=0;collapsible=0;dropTarget=0;fillColor=none;points=[[0,0.5],[1,0.5]];portConstraint=eastwest;" vertex="1" parent="Ww189aZFwE7ANTec-XfQ-258">
          <mxGeometry y="30" width="200" height="40" as="geometry" />
        </mxCell>
        <mxCell id="Ww189aZFwE7ANTec-XfQ-260" value="int" style="shape=partialRectangle;html=1;whiteSpace=wrap;connectable=0;strokeColor=inherit;overflow=hidden;fillColor=none;top=0;left=0;bottom=0;right=0;pointerEvents=1;" vertex="1" parent="Ww189aZFwE7ANTec-XfQ-259">
          <mxGeometry width="50" height="40" as="geometry">
            <mxRectangle width="50" height="40" as="alternateBounds" />
          </mxGeometry>
        </mxCell>
        <mxCell id="Ww189aZFwE7ANTec-XfQ-261" value="user_id" style="shape=partialRectangle;html=1;whiteSpace=wrap;connectable=0;strokeColor=inherit;overflow=hidden;fillColor=none;top=0;left=0;bottom=0;right=0;pointerEvents=1;" vertex="1" parent="Ww189aZFwE7ANTec-XfQ-259">
          <mxGeometry x="50" width="100" height="40" as="geometry">
            <mxRectangle width="100" height="40" as="alternateBounds" />
          </mxGeometry>
        </mxCell>
        <mxCell id="Ww189aZFwE7ANTec-XfQ-262" value="PK,FK" style="shape=partialRectangle;html=1;whiteSpace=wrap;connectable=0;strokeColor=inherit;overflow=hidden;fillColor=none;top=0;left=0;bottom=0;right=0;pointerEvents=1;" vertex="1" parent="Ww189aZFwE7ANTec-XfQ-259">
          <mxGeometry x="150" width="50" height="40" as="geometry">
            <mxRectangle width="50" height="40" as="alternateBounds" />
          </mxGeometry>
        </mxCell>
        <mxCell id="Ww189aZFwE7ANTec-XfQ-263" value="" style="shape=tableRow;horizontal=0;startSize=0;swimlaneHead=0;swimlaneBody=0;strokeColor=inherit;top=0;left=0;bottom=0;right=0;collapsible=0;dropTarget=0;fillColor=none;points=[[0,0.5],[1,0.5]];portConstraint=eastwest;" vertex="1" parent="Ww189aZFwE7ANTec-XfQ-258">
          <mxGeometry y="70" width="200" height="40" as="geometry" />
        </mxCell>
        <mxCell id="Ww189aZFwE7ANTec-XfQ-264" value="decimal" style="shape=partialRectangle;html=1;whiteSpace=wrap;connectable=0;strokeColor=inherit;overflow=hidden;fillColor=none;top=0;left=0;bottom=0;right=0;pointerEvents=1;" vertex="1" parent="Ww189aZFwE7ANTec-XfQ-263">
          <mxGeometry width="50" height="40" as="geometry">
            <mxRectangle width="50" height="40" as="alternateBounds" />
          </mxGeometry>
        </mxCell>
        <mxCell id="Ww189aZFwE7ANTec-XfQ-265" value="profit_percentage" style="shape=partialRectangle;html=1;whiteSpace=wrap;connectable=0;strokeColor=inherit;overflow=hidden;fillColor=none;top=0;left=0;bottom=0;right=0;pointerEvents=1;" vertex="1" parent="Ww189aZFwE7ANTec-XfQ-263">
          <mxGeometry x="50" width="100" height="40" as="geometry">
            <mxRectangle width="100" height="40" as="alternateBounds" />
          </mxGeometry>
        </mxCell>
        <mxCell id="Ww189aZFwE7ANTec-XfQ-266" value="" style="shape=partialRectangle;html=1;whiteSpace=wrap;connectable=0;strokeColor=inherit;overflow=hidden;fillColor=none;top=0;left=0;bottom=0;right=0;pointerEvents=1;" vertex="1" parent="Ww189aZFwE7ANTec-XfQ-263">
          <mxGeometry x="150" width="50" height="40" as="geometry">
            <mxRectangle width="50" height="40" as="alternateBounds" />
          </mxGeometry>
        </mxCell>
        <mxCell id="Ww189aZFwE7ANTec-XfQ-267" value="" style="shape=tableRow;horizontal=0;startSize=0;swimlaneHead=0;swimlaneBody=0;strokeColor=inherit;top=0;left=0;bottom=0;right=0;collapsible=0;dropTarget=0;fillColor=none;points=[[0,0.5],[1,0.5]];portConstraint=eastwest;" vertex="1" parent="Ww189aZFwE7ANTec-XfQ-258">
          <mxGeometry y="110" width="200" height="40" as="geometry" />
        </mxCell>
        <mxCell id="Ww189aZFwE7ANTec-XfQ-268" value="string" style="shape=partialRectangle;html=1;whiteSpace=wrap;connectable=0;strokeColor=inherit;overflow=hidden;fillColor=none;top=0;left=0;bottom=0;right=0;pointerEvents=1;" vertex="1" parent="Ww189aZFwE7ANTec-XfQ-267">
          <mxGeometry width="50" height="40" as="geometry">
            <mxRectangle width="50" height="40" as="alternateBounds" />
          </mxGeometry>
        </mxCell>
        <mxCell id="Ww189aZFwE7ANTec-XfQ-269" value="admin_level" style="shape=partialRectangle;html=1;whiteSpace=wrap;connectable=0;strokeColor=inherit;overflow=hidden;fillColor=none;top=0;left=0;bottom=0;right=0;pointerEvents=1;" vertex="1" parent="Ww189aZFwE7ANTec-XfQ-267">
          <mxGeometry x="50" width="100" height="40" as="geometry">
            <mxRectangle width="100" height="40" as="alternateBounds" />
          </mxGeometry>
        </mxCell>
        <mxCell id="Ww189aZFwE7ANTec-XfQ-270" value="" style="shape=partialRectangle;html=1;whiteSpace=wrap;connectable=0;strokeColor=inherit;overflow=hidden;fillColor=none;top=0;left=0;bottom=0;right=0;pointerEvents=1;" vertex="1" parent="Ww189aZFwE7ANTec-XfQ-267">
          <mxGeometry x="150" width="50" height="40" as="geometry">
            <mxRectangle width="50" height="40" as="alternateBounds" />
          </mxGeometry>
        </mxCell>
        <mxCell id="Ww189aZFwE7ANTec-XfQ-271" value="CashPayments" style="shape=table;startSize=30;container=1;collapsible=0;childLayout=tableLayout;" vertex="1" parent="1">
          <mxGeometry x="520" y="710" width="240" height="245" as="geometry" />
        </mxCell>
        <mxCell id="Ww189aZFwE7ANTec-XfQ-272" value="" style="shape=tableRow;horizontal=0;startSize=0;swimlaneHead=0;swimlaneBody=0;strokeColor=inherit;top=0;left=0;bottom=0;right=0;collapsible=0;dropTarget=0;fillColor=none;points=[[0,0.5],[1,0.5]];portConstraint=eastwest;" vertex="1" parent="Ww189aZFwE7ANTec-XfQ-271">
          <mxGeometry y="30" width="240" height="36" as="geometry" />
        </mxCell>
        <mxCell id="Ww189aZFwE7ANTec-XfQ-273" value="int" style="shape=partialRectangle;html=1;whiteSpace=wrap;connectable=0;strokeColor=inherit;overflow=hidden;fillColor=none;top=0;left=0;bottom=0;right=0;pointerEvents=1;" vertex="1" parent="Ww189aZFwE7ANTec-XfQ-272">
          <mxGeometry width="60" height="36" as="geometry">
            <mxRectangle width="60" height="36" as="alternateBounds" />
          </mxGeometry>
        </mxCell>
        <mxCell id="Ww189aZFwE7ANTec-XfQ-274" value="payment_id" style="shape=partialRectangle;html=1;whiteSpace=wrap;connectable=0;strokeColor=inherit;overflow=hidden;fillColor=none;top=0;left=0;bottom=0;right=0;pointerEvents=1;" vertex="1" parent="Ww189aZFwE7ANTec-XfQ-272">
          <mxGeometry x="60" width="100" height="36" as="geometry">
            <mxRectangle width="100" height="36" as="alternateBounds" />
          </mxGeometry>
        </mxCell>
        <mxCell id="Ww189aZFwE7ANTec-XfQ-275" value="PK" style="shape=partialRectangle;html=1;whiteSpace=wrap;connectable=0;strokeColor=inherit;overflow=hidden;fillColor=none;top=0;left=0;bottom=0;right=0;pointerEvents=1;" vertex="1" parent="Ww189aZFwE7ANTec-XfQ-272">
          <mxGeometry x="160" width="80" height="36" as="geometry">
            <mxRectangle width="80" height="36" as="alternateBounds" />
          </mxGeometry>
        </mxCell>
        <mxCell id="Ww189aZFwE7ANTec-XfQ-276" value="" style="shape=tableRow;horizontal=0;startSize=0;swimlaneHead=0;swimlaneBody=0;strokeColor=inherit;top=0;left=0;bottom=0;right=0;collapsible=0;dropTarget=0;fillColor=none;points=[[0,0.5],[1,0.5]];portConstraint=eastwest;" vertex="1" parent="Ww189aZFwE7ANTec-XfQ-271">
          <mxGeometry y="66" width="240" height="35" as="geometry" />
        </mxCell>
        <mxCell id="Ww189aZFwE7ANTec-XfQ-277" value="int" style="shape=partialRectangle;html=1;whiteSpace=wrap;connectable=0;strokeColor=inherit;overflow=hidden;fillColor=none;top=0;left=0;bottom=0;right=0;pointerEvents=1;" vertex="1" parent="Ww189aZFwE7ANTec-XfQ-276">
          <mxGeometry width="60" height="35" as="geometry">
            <mxRectangle width="60" height="35" as="alternateBounds" />
          </mxGeometry>
        </mxCell>
        <mxCell id="Ww189aZFwE7ANTec-XfQ-278" value="driver_id" style="shape=partialRectangle;html=1;whiteSpace=wrap;connectable=0;strokeColor=inherit;overflow=hidden;fillColor=none;top=0;left=0;bottom=0;right=0;pointerEvents=1;" vertex="1" parent="Ww189aZFwE7ANTec-XfQ-276">
          <mxGeometry x="60" width="100" height="35" as="geometry">
            <mxRectangle width="100" height="35" as="alternateBounds" />
          </mxGeometry>
        </mxCell>
        <mxCell id="Ww189aZFwE7ANTec-XfQ-279" value="FK" style="shape=partialRectangle;html=1;whiteSpace=wrap;connectable=0;strokeColor=inherit;overflow=hidden;fillColor=none;top=0;left=0;bottom=0;right=0;pointerEvents=1;" vertex="1" parent="Ww189aZFwE7ANTec-XfQ-276">
          <mxGeometry x="160" width="80" height="35" as="geometry">
            <mxRectangle width="80" height="35" as="alternateBounds" />
          </mxGeometry>
        </mxCell>
        <mxCell id="Ww189aZFwE7ANTec-XfQ-280" value="" style="shape=tableRow;horizontal=0;startSize=0;swimlaneHead=0;swimlaneBody=0;strokeColor=inherit;top=0;left=0;bottom=0;right=0;collapsible=0;dropTarget=0;fillColor=none;points=[[0,0.5],[1,0.5]];portConstraint=eastwest;" vertex="1" parent="Ww189aZFwE7ANTec-XfQ-271">
          <mxGeometry y="101" width="240" height="36" as="geometry" />
        </mxCell>
        <mxCell id="Ww189aZFwE7ANTec-XfQ-281" value="int" style="shape=partialRectangle;html=1;whiteSpace=wrap;connectable=0;strokeColor=inherit;overflow=hidden;fillColor=none;top=0;left=0;bottom=0;right=0;pointerEvents=1;" vertex="1" parent="Ww189aZFwE7ANTec-XfQ-280">
          <mxGeometry width="60" height="36" as="geometry">
            <mxRectangle width="60" height="36" as="alternateBounds" />
          </mxGeometry>
        </mxCell>
        <mxCell id="Ww189aZFwE7ANTec-XfQ-282" value="customer_id" style="shape=partialRectangle;html=1;whiteSpace=wrap;connectable=0;strokeColor=inherit;overflow=hidden;fillColor=none;top=0;left=0;bottom=0;right=0;pointerEvents=1;" vertex="1" parent="Ww189aZFwE7ANTec-XfQ-280">
          <mxGeometry x="60" width="100" height="36" as="geometry">
            <mxRectangle width="100" height="36" as="alternateBounds" />
          </mxGeometry>
        </mxCell>
        <mxCell id="Ww189aZFwE7ANTec-XfQ-283" value="FK" style="shape=partialRectangle;html=1;whiteSpace=wrap;connectable=0;strokeColor=inherit;overflow=hidden;fillColor=none;top=0;left=0;bottom=0;right=0;pointerEvents=1;" vertex="1" parent="Ww189aZFwE7ANTec-XfQ-280">
          <mxGeometry x="160" width="80" height="36" as="geometry">
            <mxRectangle width="80" height="36" as="alternateBounds" />
          </mxGeometry>
        </mxCell>
        <mxCell id="Ww189aZFwE7ANTec-XfQ-284" value="" style="shape=tableRow;horizontal=0;startSize=0;swimlaneHead=0;swimlaneBody=0;strokeColor=inherit;top=0;left=0;bottom=0;right=0;collapsible=0;dropTarget=0;fillColor=none;points=[[0,0.5],[1,0.5]];portConstraint=eastwest;" vertex="1" parent="Ww189aZFwE7ANTec-XfQ-271">
          <mxGeometry y="137" width="240" height="36" as="geometry" />
        </mxCell>
        <mxCell id="Ww189aZFwE7ANTec-XfQ-285" value="decimal" style="shape=partialRectangle;html=1;whiteSpace=wrap;connectable=0;strokeColor=inherit;overflow=hidden;fillColor=none;top=0;left=0;bottom=0;right=0;pointerEvents=1;" vertex="1" parent="Ww189aZFwE7ANTec-XfQ-284">
          <mxGeometry width="60" height="36" as="geometry">
            <mxRectangle width="60" height="36" as="alternateBounds" />
          </mxGeometry>
        </mxCell>
        <mxCell id="Ww189aZFwE7ANTec-XfQ-286" value="amount" style="shape=partialRectangle;html=1;whiteSpace=wrap;connectable=0;strokeColor=inherit;overflow=hidden;fillColor=none;top=0;left=0;bottom=0;right=0;pointerEvents=1;" vertex="1" parent="Ww189aZFwE7ANTec-XfQ-284">
          <mxGeometry x="60" width="100" height="36" as="geometry">
            <mxRectangle width="100" height="36" as="alternateBounds" />
          </mxGeometry>
        </mxCell>
        <mxCell id="Ww189aZFwE7ANTec-XfQ-287" value="" style="shape=partialRectangle;html=1;whiteSpace=wrap;connectable=0;strokeColor=inherit;overflow=hidden;fillColor=none;top=0;left=0;bottom=0;right=0;pointerEvents=1;" vertex="1" parent="Ww189aZFwE7ANTec-XfQ-284">
          <mxGeometry x="160" width="80" height="36" as="geometry">
            <mxRectangle width="80" height="36" as="alternateBounds" />
          </mxGeometry>
        </mxCell>
        <mxCell id="Ww189aZFwE7ANTec-XfQ-288" value="" style="shape=tableRow;horizontal=0;startSize=0;swimlaneHead=0;swimlaneBody=0;strokeColor=inherit;top=0;left=0;bottom=0;right=0;collapsible=0;dropTarget=0;fillColor=none;points=[[0,0.5],[1,0.5]];portConstraint=eastwest;" vertex="1" parent="Ww189aZFwE7ANTec-XfQ-271">
          <mxGeometry y="173" width="240" height="36" as="geometry" />
        </mxCell>
        <mxCell id="Ww189aZFwE7ANTec-XfQ-289" value="date" style="shape=partialRectangle;html=1;whiteSpace=wrap;connectable=0;strokeColor=inherit;overflow=hidden;fillColor=none;top=0;left=0;bottom=0;right=0;pointerEvents=1;" vertex="1" parent="Ww189aZFwE7ANTec-XfQ-288">
          <mxGeometry width="60" height="36" as="geometry">
            <mxRectangle width="60" height="36" as="alternateBounds" />
          </mxGeometry>
        </mxCell>
        <mxCell id="Ww189aZFwE7ANTec-XfQ-290" value="payment_date" style="shape=partialRectangle;html=1;whiteSpace=wrap;connectable=0;strokeColor=inherit;overflow=hidden;fillColor=none;top=0;left=0;bottom=0;right=0;pointerEvents=1;" vertex="1" parent="Ww189aZFwE7ANTec-XfQ-288">
          <mxGeometry x="60" width="100" height="36" as="geometry">
            <mxRectangle width="100" height="36" as="alternateBounds" />
          </mxGeometry>
        </mxCell>
        <mxCell id="Ww189aZFwE7ANTec-XfQ-291" value="" style="shape=partialRectangle;html=1;whiteSpace=wrap;connectable=0;strokeColor=inherit;overflow=hidden;fillColor=none;top=0;left=0;bottom=0;right=0;pointerEvents=1;" vertex="1" parent="Ww189aZFwE7ANTec-XfQ-288">
          <mxGeometry x="160" width="80" height="36" as="geometry">
            <mxRectangle width="80" height="36" as="alternateBounds" />
          </mxGeometry>
        </mxCell>
        <mxCell id="Ww189aZFwE7ANTec-XfQ-296" value="" style="shape=tableRow;horizontal=0;startSize=0;swimlaneHead=0;swimlaneBody=0;strokeColor=inherit;top=0;left=0;bottom=0;right=0;collapsible=0;dropTarget=0;fillColor=none;points=[[0,0.5],[1,0.5]];portConstraint=eastwest;" vertex="1" parent="Ww189aZFwE7ANTec-XfQ-271">
          <mxGeometry y="209" width="240" height="36" as="geometry" />
        </mxCell>
        <mxCell id="Ww189aZFwE7ANTec-XfQ-297" value="string" style="shape=partialRectangle;html=1;whiteSpace=wrap;connectable=0;strokeColor=inherit;overflow=hidden;fillColor=none;top=0;left=0;bottom=0;right=0;pointerEvents=1;" vertex="1" parent="Ww189aZFwE7ANTec-XfQ-296">
          <mxGeometry width="60" height="36" as="geometry">
            <mxRectangle width="60" height="36" as="alternateBounds" />
          </mxGeometry>
        </mxCell>
        <mxCell id="Ww189aZFwE7ANTec-XfQ-298" value="status" style="shape=partialRectangle;html=1;whiteSpace=wrap;connectable=0;strokeColor=inherit;overflow=hidden;fillColor=none;top=0;left=0;bottom=0;right=0;pointerEvents=1;" vertex="1" parent="Ww189aZFwE7ANTec-XfQ-296">
          <mxGeometry x="60" width="100" height="36" as="geometry">
            <mxRectangle width="100" height="36" as="alternateBounds" />
          </mxGeometry>
        </mxCell>
        <mxCell id="Ww189aZFwE7ANTec-XfQ-299" value="" style="shape=partialRectangle;html=1;whiteSpace=wrap;connectable=0;strokeColor=inherit;overflow=hidden;fillColor=none;top=0;left=0;bottom=0;right=0;pointerEvents=1;" vertex="1" parent="Ww189aZFwE7ANTec-XfQ-296">
          <mxGeometry x="160" width="80" height="36" as="geometry">
            <mxRectangle width="80" height="36" as="alternateBounds" />
          </mxGeometry>
        </mxCell>
        <mxCell id="Ww189aZFwE7ANTec-XfQ-329" value="ProfitPayment" style="shape=table;startSize=30;container=1;collapsible=0;childLayout=tableLayout;" vertex="1" parent="1">
          <mxGeometry x="90" y="720" width="240" height="280" as="geometry" />
        </mxCell>
        <mxCell id="Ww189aZFwE7ANTec-XfQ-330" value="" style="shape=tableRow;horizontal=0;startSize=0;swimlaneHead=0;swimlaneBody=0;strokeColor=inherit;top=0;left=0;bottom=0;right=0;collapsible=0;dropTarget=0;fillColor=none;points=[[0,0.5],[1,0.5]];portConstraint=eastwest;" vertex="1" parent="Ww189aZFwE7ANTec-XfQ-329">
          <mxGeometry y="30" width="240" height="36" as="geometry" />
        </mxCell>
        <mxCell id="Ww189aZFwE7ANTec-XfQ-331" value="int" style="shape=partialRectangle;html=1;whiteSpace=wrap;connectable=0;strokeColor=inherit;overflow=hidden;fillColor=none;top=0;left=0;bottom=0;right=0;pointerEvents=1;" vertex="1" parent="Ww189aZFwE7ANTec-XfQ-330">
          <mxGeometry width="60" height="36" as="geometry">
            <mxRectangle width="60" height="36" as="alternateBounds" />
          </mxGeometry>
        </mxCell>
        <mxCell id="Ww189aZFwE7ANTec-XfQ-332" value="profit_payment_id" style="shape=partialRectangle;html=1;whiteSpace=wrap;connectable=0;strokeColor=inherit;overflow=hidden;fillColor=none;top=0;left=0;bottom=0;right=0;pointerEvents=1;" vertex="1" parent="Ww189aZFwE7ANTec-XfQ-330">
          <mxGeometry x="60" width="120" height="36" as="geometry">
            <mxRectangle width="120" height="36" as="alternateBounds" />
          </mxGeometry>
        </mxCell>
        <mxCell id="Ww189aZFwE7ANTec-XfQ-333" value="PK" style="shape=partialRectangle;html=1;whiteSpace=wrap;connectable=0;strokeColor=inherit;overflow=hidden;fillColor=none;top=0;left=0;bottom=0;right=0;pointerEvents=1;" vertex="1" parent="Ww189aZFwE7ANTec-XfQ-330">
          <mxGeometry x="180" width="60" height="36" as="geometry">
            <mxRectangle width="60" height="36" as="alternateBounds" />
          </mxGeometry>
        </mxCell>
        <mxCell id="Ww189aZFwE7ANTec-XfQ-334" value="" style="shape=tableRow;horizontal=0;startSize=0;swimlaneHead=0;swimlaneBody=0;strokeColor=inherit;top=0;left=0;bottom=0;right=0;collapsible=0;dropTarget=0;fillColor=none;points=[[0,0.5],[1,0.5]];portConstraint=eastwest;" vertex="1" parent="Ww189aZFwE7ANTec-XfQ-329">
          <mxGeometry y="66" width="240" height="35" as="geometry" />
        </mxCell>
        <mxCell id="Ww189aZFwE7ANTec-XfQ-335" value="int" style="shape=partialRectangle;html=1;whiteSpace=wrap;connectable=0;strokeColor=inherit;overflow=hidden;fillColor=none;top=0;left=0;bottom=0;right=0;pointerEvents=1;" vertex="1" parent="Ww189aZFwE7ANTec-XfQ-334">
          <mxGeometry width="60" height="35" as="geometry">
            <mxRectangle width="60" height="35" as="alternateBounds" />
          </mxGeometry>
        </mxCell>
        <mxCell id="Ww189aZFwE7ANTec-XfQ-336" value="driver_id" style="shape=partialRectangle;html=1;whiteSpace=wrap;connectable=0;strokeColor=inherit;overflow=hidden;fillColor=none;top=0;left=0;bottom=0;right=0;pointerEvents=1;" vertex="1" parent="Ww189aZFwE7ANTec-XfQ-334">
          <mxGeometry x="60" width="120" height="35" as="geometry">
            <mxRectangle width="120" height="35" as="alternateBounds" />
          </mxGeometry>
        </mxCell>
        <mxCell id="Ww189aZFwE7ANTec-XfQ-337" value="FK" style="shape=partialRectangle;html=1;whiteSpace=wrap;connectable=0;strokeColor=inherit;overflow=hidden;fillColor=none;top=0;left=0;bottom=0;right=0;pointerEvents=1;" vertex="1" parent="Ww189aZFwE7ANTec-XfQ-334">
          <mxGeometry x="180" width="60" height="35" as="geometry">
            <mxRectangle width="60" height="35" as="alternateBounds" />
          </mxGeometry>
        </mxCell>
        <mxCell id="Ww189aZFwE7ANTec-XfQ-338" value="" style="shape=tableRow;horizontal=0;startSize=0;swimlaneHead=0;swimlaneBody=0;strokeColor=inherit;top=0;left=0;bottom=0;right=0;collapsible=0;dropTarget=0;fillColor=none;points=[[0,0.5],[1,0.5]];portConstraint=eastwest;" vertex="1" parent="Ww189aZFwE7ANTec-XfQ-329">
          <mxGeometry y="101" width="240" height="36" as="geometry" />
        </mxCell>
        <mxCell id="Ww189aZFwE7ANTec-XfQ-339" value="int" style="shape=partialRectangle;html=1;whiteSpace=wrap;connectable=0;strokeColor=inherit;overflow=hidden;fillColor=none;top=0;left=0;bottom=0;right=0;pointerEvents=1;" vertex="1" parent="Ww189aZFwE7ANTec-XfQ-338">
          <mxGeometry width="60" height="36" as="geometry">
            <mxRectangle width="60" height="36" as="alternateBounds" />
          </mxGeometry>
        </mxCell>
        <mxCell id="Ww189aZFwE7ANTec-XfQ-340" value="admin_id" style="shape=partialRectangle;html=1;whiteSpace=wrap;connectable=0;strokeColor=inherit;overflow=hidden;fillColor=none;top=0;left=0;bottom=0;right=0;pointerEvents=1;" vertex="1" parent="Ww189aZFwE7ANTec-XfQ-338">
          <mxGeometry x="60" width="120" height="36" as="geometry">
            <mxRectangle width="120" height="36" as="alternateBounds" />
          </mxGeometry>
        </mxCell>
        <mxCell id="Ww189aZFwE7ANTec-XfQ-341" value="FK" style="shape=partialRectangle;html=1;whiteSpace=wrap;connectable=0;strokeColor=inherit;overflow=hidden;fillColor=none;top=0;left=0;bottom=0;right=0;pointerEvents=1;" vertex="1" parent="Ww189aZFwE7ANTec-XfQ-338">
          <mxGeometry x="180" width="60" height="36" as="geometry">
            <mxRectangle width="60" height="36" as="alternateBounds" />
          </mxGeometry>
        </mxCell>
        <mxCell id="Ww189aZFwE7ANTec-XfQ-342" value="" style="shape=tableRow;horizontal=0;startSize=0;swimlaneHead=0;swimlaneBody=0;strokeColor=inherit;top=0;left=0;bottom=0;right=0;collapsible=0;dropTarget=0;fillColor=none;points=[[0,0.5],[1,0.5]];portConstraint=eastwest;" vertex="1" parent="Ww189aZFwE7ANTec-XfQ-329">
          <mxGeometry y="137" width="240" height="36" as="geometry" />
        </mxCell>
        <mxCell id="Ww189aZFwE7ANTec-XfQ-343" value="decimal" style="shape=partialRectangle;html=1;whiteSpace=wrap;connectable=0;strokeColor=inherit;overflow=hidden;fillColor=none;top=0;left=0;bottom=0;right=0;pointerEvents=1;" vertex="1" parent="Ww189aZFwE7ANTec-XfQ-342">
          <mxGeometry width="60" height="36" as="geometry">
            <mxRectangle width="60" height="36" as="alternateBounds" />
          </mxGeometry>
        </mxCell>
        <mxCell id="Ww189aZFwE7ANTec-XfQ-344" value="amount" style="shape=partialRectangle;html=1;whiteSpace=wrap;connectable=0;strokeColor=inherit;overflow=hidden;fillColor=none;top=0;left=0;bottom=0;right=0;pointerEvents=1;" vertex="1" parent="Ww189aZFwE7ANTec-XfQ-342">
          <mxGeometry x="60" width="120" height="36" as="geometry">
            <mxRectangle width="120" height="36" as="alternateBounds" />
          </mxGeometry>
        </mxCell>
        <mxCell id="Ww189aZFwE7ANTec-XfQ-345" value="" style="shape=partialRectangle;html=1;whiteSpace=wrap;connectable=0;strokeColor=inherit;overflow=hidden;fillColor=none;top=0;left=0;bottom=0;right=0;pointerEvents=1;" vertex="1" parent="Ww189aZFwE7ANTec-XfQ-342">
          <mxGeometry x="180" width="60" height="36" as="geometry">
            <mxRectangle width="60" height="36" as="alternateBounds" />
          </mxGeometry>
        </mxCell>
        <mxCell id="Ww189aZFwE7ANTec-XfQ-346" value="" style="shape=tableRow;horizontal=0;startSize=0;swimlaneHead=0;swimlaneBody=0;strokeColor=inherit;top=0;left=0;bottom=0;right=0;collapsible=0;dropTarget=0;fillColor=none;points=[[0,0.5],[1,0.5]];portConstraint=eastwest;" vertex="1" parent="Ww189aZFwE7ANTec-XfQ-329">
          <mxGeometry y="173" width="240" height="36" as="geometry" />
        </mxCell>
        <mxCell id="Ww189aZFwE7ANTec-XfQ-347" value="date" style="shape=partialRectangle;html=1;whiteSpace=wrap;connectable=0;strokeColor=inherit;overflow=hidden;fillColor=none;top=0;left=0;bottom=0;right=0;pointerEvents=1;" vertex="1" parent="Ww189aZFwE7ANTec-XfQ-346">
          <mxGeometry width="60" height="36" as="geometry">
            <mxRectangle width="60" height="36" as="alternateBounds" />
          </mxGeometry>
        </mxCell>
        <mxCell id="Ww189aZFwE7ANTec-XfQ-348" value="payment_date" style="shape=partialRectangle;html=1;whiteSpace=wrap;connectable=0;strokeColor=inherit;overflow=hidden;fillColor=none;top=0;left=0;bottom=0;right=0;pointerEvents=1;" vertex="1" parent="Ww189aZFwE7ANTec-XfQ-346">
          <mxGeometry x="60" width="120" height="36" as="geometry">
            <mxRectangle width="120" height="36" as="alternateBounds" />
          </mxGeometry>
        </mxCell>
        <mxCell id="Ww189aZFwE7ANTec-XfQ-349" value="" style="shape=partialRectangle;html=1;whiteSpace=wrap;connectable=0;strokeColor=inherit;overflow=hidden;fillColor=none;top=0;left=0;bottom=0;right=0;pointerEvents=1;" vertex="1" parent="Ww189aZFwE7ANTec-XfQ-346">
          <mxGeometry x="180" width="60" height="36" as="geometry">
            <mxRectangle width="60" height="36" as="alternateBounds" />
          </mxGeometry>
        </mxCell>
        <mxCell id="Ww189aZFwE7ANTec-XfQ-350" value="" style="shape=tableRow;horizontal=0;startSize=0;swimlaneHead=0;swimlaneBody=0;strokeColor=inherit;top=0;left=0;bottom=0;right=0;collapsible=0;dropTarget=0;fillColor=none;points=[[0,0.5],[1,0.5]];portConstraint=eastwest;" vertex="1" parent="Ww189aZFwE7ANTec-XfQ-329">
          <mxGeometry y="209" width="240" height="35" as="geometry" />
        </mxCell>
        <mxCell id="Ww189aZFwE7ANTec-XfQ-351" value="decimal" style="shape=partialRectangle;html=1;whiteSpace=wrap;connectable=0;strokeColor=inherit;overflow=hidden;fillColor=none;top=0;left=0;bottom=0;right=0;pointerEvents=1;" vertex="1" parent="Ww189aZFwE7ANTec-XfQ-350">
          <mxGeometry width="60" height="35" as="geometry">
            <mxRectangle width="60" height="35" as="alternateBounds" />
          </mxGeometry>
        </mxCell>
        <mxCell id="Ww189aZFwE7ANTec-XfQ-352" value="created_at" style="shape=partialRectangle;html=1;whiteSpace=wrap;connectable=0;strokeColor=inherit;overflow=hidden;fillColor=none;top=0;left=0;bottom=0;right=0;pointerEvents=1;" vertex="1" parent="Ww189aZFwE7ANTec-XfQ-350">
          <mxGeometry x="60" width="120" height="35" as="geometry">
            <mxRectangle width="120" height="35" as="alternateBounds" />
          </mxGeometry>
        </mxCell>
        <mxCell id="Ww189aZFwE7ANTec-XfQ-353" value="" style="shape=partialRectangle;html=1;whiteSpace=wrap;connectable=0;strokeColor=inherit;overflow=hidden;fillColor=none;top=0;left=0;bottom=0;right=0;pointerEvents=1;" vertex="1" parent="Ww189aZFwE7ANTec-XfQ-350">
          <mxGeometry x="180" width="60" height="35" as="geometry">
            <mxRectangle width="60" height="35" as="alternateBounds" />
          </mxGeometry>
        </mxCell>
        <mxCell id="Ww189aZFwE7ANTec-XfQ-354" value="" style="shape=tableRow;horizontal=0;startSize=0;swimlaneHead=0;swimlaneBody=0;strokeColor=inherit;top=0;left=0;bottom=0;right=0;collapsible=0;dropTarget=0;fillColor=none;points=[[0,0.5],[1,0.5]];portConstraint=eastwest;" vertex="1" parent="Ww189aZFwE7ANTec-XfQ-329">
          <mxGeometry y="244" width="240" height="36" as="geometry" />
        </mxCell>
        <mxCell id="Ww189aZFwE7ANTec-XfQ-355" value="string" style="shape=partialRectangle;html=1;whiteSpace=wrap;connectable=0;strokeColor=inherit;overflow=hidden;fillColor=none;top=0;left=0;bottom=0;right=0;pointerEvents=1;" vertex="1" parent="Ww189aZFwE7ANTec-XfQ-354">
          <mxGeometry width="60" height="36" as="geometry">
            <mxRectangle width="60" height="36" as="alternateBounds" />
          </mxGeometry>
        </mxCell>
        <mxCell id="Ww189aZFwE7ANTec-XfQ-356" value="status" style="shape=partialRectangle;html=1;whiteSpace=wrap;connectable=0;strokeColor=inherit;overflow=hidden;fillColor=none;top=0;left=0;bottom=0;right=0;pointerEvents=1;" vertex="1" parent="Ww189aZFwE7ANTec-XfQ-354">
          <mxGeometry x="60" width="120" height="36" as="geometry">
            <mxRectangle width="120" height="36" as="alternateBounds" />
          </mxGeometry>
        </mxCell>
        <mxCell id="Ww189aZFwE7ANTec-XfQ-357" value="" style="shape=partialRectangle;html=1;whiteSpace=wrap;connectable=0;strokeColor=inherit;overflow=hidden;fillColor=none;top=0;left=0;bottom=0;right=0;pointerEvents=1;" vertex="1" parent="Ww189aZFwE7ANTec-XfQ-354">
          <mxGeometry x="180" width="60" height="36" as="geometry">
            <mxRectangle width="60" height="36" as="alternateBounds" />
          </mxGeometry>
        </mxCell>
        <mxCell id="Ww189aZFwE7ANTec-XfQ-358" value="" style="edgeStyle=orthogonalEdgeStyle;fontSize=12;html=1;endArrow=ERzeroToMany;startArrow=ERmandOne;rounded=0;curved=1;exitX=1;exitY=0.5;exitDx=0;exitDy=0;" edge="1" parent="1" source="Ww189aZFwE7ANTec-XfQ-254">
          <mxGeometry width="100" height="100" relative="1" as="geometry">
            <mxPoint x="480" y="650" as="sourcePoint" />
            <mxPoint x="600" y="710" as="targetPoint" />
          </mxGeometry>
        </mxCell>
        <mxCell id="Ww189aZFwE7ANTec-XfQ-359" value="" style="edgeStyle=orthogonalEdgeStyle;fontSize=12;html=1;endArrow=ERzeroToMany;startArrow=ERmandOne;rounded=0;curved=1;exitX=0.381;exitY=1;exitDx=0;exitDy=0;exitPerimeter=0;" edge="1" parent="1" source="Ww189aZFwE7ANTec-XfQ-233">
          <mxGeometry width="100" height="100" relative="1" as="geometry">
            <mxPoint x="650" y="620" as="sourcePoint" />
            <mxPoint x="710" y="710" as="targetPoint" />
            <Array as="points">
              <mxPoint x="680" y="621" />
              <mxPoint x="711" y="621" />
              <mxPoint x="711" y="710" />
            </Array>
          </mxGeometry>
        </mxCell>
        <mxCell id="Ww189aZFwE7ANTec-XfQ-361" value="" style="edgeStyle=orthogonalEdgeStyle;fontSize=12;html=1;endArrow=ERzeroToMany;startArrow=ERmandOne;rounded=0;entryX=0.673;entryY=-0.013;entryDx=0;entryDy=0;entryPerimeter=0;exitX=0;exitY=0.5;exitDx=0;exitDy=0;curved=1;" edge="1" parent="1" source="Ww189aZFwE7ANTec-XfQ-254" target="Ww189aZFwE7ANTec-XfQ-329">
          <mxGeometry width="100" height="100" relative="1" as="geometry">
            <mxPoint x="140" y="700" as="sourcePoint" />
            <mxPoint x="240" y="600" as="targetPoint" />
          </mxGeometry>
        </mxCell>
        <mxCell id="Ww189aZFwE7ANTec-XfQ-362" value="" style="edgeStyle=orthogonalEdgeStyle;fontSize=12;html=1;endArrow=ERzeroToMany;startArrow=ERmandOne;rounded=0;entryX=0.219;entryY=0;entryDx=0;entryDy=0;entryPerimeter=0;exitX=0;exitY=0.5;exitDx=0;exitDy=0;curved=1;" edge="1" parent="1" target="Ww189aZFwE7ANTec-XfQ-329">
          <mxGeometry width="100" height="100" relative="1" as="geometry">
            <mxPoint x="148" y="550" as="sourcePoint" />
            <mxPoint x="100" y="646" as="targetPoint" />
          </mxGeometry>
        </mxCell>
        <mxCell id="Ww189aZFwE7ANTec-XfQ-363" value="" style="edgeStyle=orthogonalEdgeStyle;fontSize=12;html=1;endArrow=ERmandOne;startArrow=ERmandOne;rounded=0;curved=1;" edge="1" parent="1">
          <mxGeometry width="100" height="100" relative="1" as="geometry">
            <mxPoint x="400" y="400" as="sourcePoint" />
            <mxPoint x="420" y="260" as="targetPoint" />
          </mxGeometry>
        </mxCell>
        <mxCell id="Ww189aZFwE7ANTec-XfQ-364" value="" style="edgeStyle=orthogonalEdgeStyle;fontSize=12;html=1;endArrow=ERmandOne;startArrow=ERmandOne;rounded=0;curved=1;entryX=1.012;entryY=0.167;entryDx=0;entryDy=0;entryPerimeter=0;" edge="1" parent="1" target="Ww189aZFwE7ANTec-XfQ-220">
          <mxGeometry width="100" height="100" relative="1" as="geometry">
            <mxPoint x="680" y="400" as="sourcePoint" />
            <mxPoint x="520" y="290" as="targetPoint" />
          </mxGeometry>
        </mxCell>
        <mxCell id="Ww189aZFwE7ANTec-XfQ-365" value="" style="edgeStyle=orthogonalEdgeStyle;fontSize=12;html=1;endArrow=ERmandOne;startArrow=ERmandOne;rounded=0;curved=1;" edge="1" parent="1" target="Ww189aZFwE7ANTec-XfQ-220">
          <mxGeometry width="100" height="100" relative="1" as="geometry">
            <mxPoint x="160" y="400" as="sourcePoint" />
            <mxPoint x="160" y="280" as="targetPoint" />
          </mxGeometry>
        </mxCell>
        <mxCell id="Ww189aZFwE7ANTec-XfQ-366" value="&lt;font style=&quot;font-size: 14px;&quot;&gt;extends&lt;/font&gt;" style="text;html=1;align=center;verticalAlign=middle;resizable=0;points=[];autosize=1;strokeColor=none;fillColor=none;" vertex="1" parent="1">
          <mxGeometry x="140" y="318" width="70" height="30" as="geometry" />
        </mxCell>
        <mxCell id="Ww189aZFwE7ANTec-XfQ-367" value="&lt;font style=&quot;font-size: 14px;&quot;&gt;extends&lt;/font&gt;" style="text;html=1;align=center;verticalAlign=middle;resizable=0;points=[];autosize=1;strokeColor=none;fillColor=none;" vertex="1" parent="1">
          <mxGeometry x="370" y="318" width="70" height="30" as="geometry" />
        </mxCell>
        <mxCell id="Ww189aZFwE7ANTec-XfQ-368" value="&lt;font style=&quot;font-size: 14px;&quot;&gt;extends&lt;/font&gt;" style="text;html=1;align=center;verticalAlign=middle;resizable=0;points=[];autosize=1;strokeColor=none;fillColor=none;" vertex="1" parent="1">
          <mxGeometry x="630" y="298" width="70" height="30" as="geometry" />
        </mxCell>
        <mxCell id="Ww189aZFwE7ANTec-XfQ-369" value="&lt;font style=&quot;font-size: 14px;&quot;&gt;manages&lt;/font&gt;" style="text;html=1;align=center;verticalAlign=middle;resizable=0;points=[];autosize=1;strokeColor=none;fillColor=none;" vertex="1" parent="1">
          <mxGeometry x="100" y="600" width="80" height="30" as="geometry" />
        </mxCell>
        <mxCell id="Ww189aZFwE7ANTec-XfQ-371" value="&lt;font style=&quot;font-size: 14px;&quot;&gt;receives&lt;/font&gt;" style="text;html=1;align=center;verticalAlign=middle;resizable=0;points=[];autosize=1;strokeColor=none;fillColor=none;" vertex="1" parent="1">
          <mxGeometry x="240" y="648" width="80" height="30" as="geometry" />
        </mxCell>
        <mxCell id="Ww189aZFwE7ANTec-XfQ-372" value="&lt;font style=&quot;font-size: 14px;&quot;&gt;receives&lt;/font&gt;" style="text;html=1;align=center;verticalAlign=middle;resizable=0;points=[];autosize=1;strokeColor=none;fillColor=none;" vertex="1" parent="1">
          <mxGeometry x="560" y="648" width="80" height="30" as="geometry" />
        </mxCell>
        <mxCell id="Ww189aZFwE7ANTec-XfQ-373" value="&lt;font style=&quot;font-size: 14px;&quot;&gt;makes&lt;/font&gt;" style="text;html=1;align=center;verticalAlign=middle;resizable=0;points=[];autosize=1;strokeColor=none;fillColor=none;" vertex="1" parent="1">
          <mxGeometry x="680" y="588" width="60" height="30" as="geometry" />
        </mxCell>
      </root>
    </mxGraphModel>
  </diagram>
</mxfile>
